<mxfile host="Electron" modified="2023-09-24T17:56:25.396Z" agent="Mozilla/5.0 (X11; Linux x86_64) AppleWebKit/537.36 (KHTML, like Gecko) draw.io/21.7.5 Chrome/114.0.5735.289 Electron/25.8.1 Safari/537.36" etag="xLjBsAgwAk0ymwAM1Bta" version="21.7.5" type="device">
  <diagram id="C5RBs43oDa-KdzZeNtuy" name="Page-1">
    <mxGraphModel dx="1434" dy="791" grid="1" gridSize="10" guides="1" tooltips="1" connect="1" arrows="1" fold="1" page="1" pageScale="1" pageWidth="827" pageHeight="1169" math="0" shadow="0">
      <root>
        <mxCell id="WIyWlLk6GJQsqaUBKTNV-0" />
        <mxCell id="WIyWlLk6GJQsqaUBKTNV-1" parent="WIyWlLk6GJQsqaUBKTNV-0" />
        <mxCell id="GbVme3i1ZLDM1Tdf3nzP-0" value="&lt;font style=&quot;font-size: 14px;&quot;&gt;Начало&lt;/font&gt;" style="strokeWidth=2;html=1;shape=mxgraph.flowchart.terminator;whiteSpace=wrap;" vertex="1" parent="WIyWlLk6GJQsqaUBKTNV-1">
          <mxGeometry x="320" y="20" width="176" height="80" as="geometry" />
        </mxCell>
        <mxCell id="GbVme3i1ZLDM1Tdf3nzP-1" value="&lt;font style=&quot;font-size: 14px;&quot;&gt;Расстояние Дамерау-Левенштейна&lt;br&gt;(рекурсивная реализация c кешированием)&amp;nbsp;&lt;br&gt;Входные данные: строки&amp;nbsp; S&lt;sub&gt;1&amp;nbsp;&lt;/sub&gt;и S&lt;sub&gt;2&amp;nbsp; &amp;nbsp; &amp;nbsp; &amp;nbsp; &amp;nbsp; &amp;nbsp; &amp;nbsp;&lt;/sub&gt;&amp;nbsp;&amp;nbsp;&lt;br&gt;Выходные данные: число&lt;sub&gt;&amp;nbsp; &amp;nbsp;&lt;/sub&gt;&amp;nbsp; &lt;sub&gt;&amp;nbsp;&amp;nbsp;&amp;nbsp;&amp;nbsp;&lt;/sub&gt;&lt;/font&gt;" style="strokeWidth=2;html=1;shape=mxgraph.flowchart.annotation_1;align=left;pointerEvents=1;" vertex="1" parent="WIyWlLk6GJQsqaUBKTNV-1">
          <mxGeometry x="520" y="10" width="50" height="100" as="geometry" />
        </mxCell>
        <mxCell id="GbVme3i1ZLDM1Tdf3nzP-2" value="" style="endArrow=none;dashed=1;html=1;rounded=0;entryX=0;entryY=0.5;entryDx=0;entryDy=0;entryPerimeter=0;exitX=1;exitY=0.5;exitDx=0;exitDy=0;exitPerimeter=0;" edge="1" parent="WIyWlLk6GJQsqaUBKTNV-1" source="GbVme3i1ZLDM1Tdf3nzP-0" target="GbVme3i1ZLDM1Tdf3nzP-1">
          <mxGeometry width="50" height="50" relative="1" as="geometry">
            <mxPoint x="384" y="200" as="sourcePoint" />
            <mxPoint x="434" y="150" as="targetPoint" />
          </mxGeometry>
        </mxCell>
        <mxCell id="GbVme3i1ZLDM1Tdf3nzP-3" value="&lt;font style=&quot;font-size: 14px;&quot;&gt;l&lt;sub&gt;1&amp;nbsp;&lt;/sub&gt;&amp;nbsp;= len(S&lt;sub style=&quot;&quot;&gt;1&lt;/sub&gt;)&lt;br&gt;l&lt;sub&gt;2&amp;nbsp;&lt;/sub&gt;&amp;nbsp;= len(S&lt;sub&gt;2&lt;/sub&gt;)&lt;br&gt;&lt;/font&gt;" style="shape=process;whiteSpace=wrap;html=1;backgroundOutline=1;" vertex="1" parent="WIyWlLk6GJQsqaUBKTNV-1">
          <mxGeometry x="331" y="120" width="154" height="70" as="geometry" />
        </mxCell>
        <mxCell id="GbVme3i1ZLDM1Tdf3nzP-4" value="" style="endArrow=none;html=1;rounded=0;entryX=0.5;entryY=1;entryDx=0;entryDy=0;entryPerimeter=0;exitX=0.5;exitY=0;exitDx=0;exitDy=0;" edge="1" parent="WIyWlLk6GJQsqaUBKTNV-1" source="GbVme3i1ZLDM1Tdf3nzP-3" target="GbVme3i1ZLDM1Tdf3nzP-0">
          <mxGeometry width="50" height="50" relative="1" as="geometry">
            <mxPoint x="424" y="310" as="sourcePoint" />
            <mxPoint x="474" y="260" as="targetPoint" />
          </mxGeometry>
        </mxCell>
        <mxCell id="GbVme3i1ZLDM1Tdf3nzP-5" value="min_ij = 0" style="strokeWidth=2;html=1;shape=mxgraph.flowchart.decision;whiteSpace=wrap;" vertex="1" parent="WIyWlLk6GJQsqaUBKTNV-1">
          <mxGeometry x="159.00000000000003" y="490" width="216" height="130" as="geometry" />
        </mxCell>
        <mxCell id="GbVme3i1ZLDM1Tdf3nzP-6" value="&lt;font style=&quot;font-size: 14px;&quot;&gt;min_ij = min(l&lt;sub&gt;1&lt;/sub&gt;, l&lt;sub&gt;2&lt;/sub&gt;)&lt;br&gt;&lt;/font&gt;" style="shape=process;whiteSpace=wrap;html=1;backgroundOutline=1;" vertex="1" parent="WIyWlLk6GJQsqaUBKTNV-1">
          <mxGeometry x="190.00000000000003" y="400" width="154" height="70" as="geometry" />
        </mxCell>
        <mxCell id="GbVme3i1ZLDM1Tdf3nzP-7" value="" style="endArrow=none;html=1;rounded=0;entryX=0.5;entryY=1;entryDx=0;entryDy=0;exitX=0.5;exitY=0;exitDx=0;exitDy=0;exitPerimeter=0;" edge="1" parent="WIyWlLk6GJQsqaUBKTNV-1" source="GbVme3i1ZLDM1Tdf3nzP-5" target="GbVme3i1ZLDM1Tdf3nzP-6">
          <mxGeometry width="50" height="50" relative="1" as="geometry">
            <mxPoint x="340" y="600" as="sourcePoint" />
            <mxPoint x="390" y="550" as="targetPoint" />
          </mxGeometry>
        </mxCell>
        <mxCell id="GbVme3i1ZLDM1Tdf3nzP-8" value="" style="endArrow=none;html=1;rounded=0;entryX=1;entryY=0.5;entryDx=0;entryDy=0;entryPerimeter=0;edgeStyle=orthogonalEdgeStyle;exitX=0.5;exitY=0;exitDx=0;exitDy=0;" edge="1" parent="WIyWlLk6GJQsqaUBKTNV-1" source="GbVme3i1ZLDM1Tdf3nzP-9" target="GbVme3i1ZLDM1Tdf3nzP-5">
          <mxGeometry width="50" height="50" relative="1" as="geometry">
            <mxPoint x="480" y="690" as="sourcePoint" />
            <mxPoint x="390" y="600" as="targetPoint" />
            <Array as="points">
              <mxPoint x="460" y="600" />
              <mxPoint x="460" y="555" />
            </Array>
          </mxGeometry>
        </mxCell>
        <mxCell id="GbVme3i1ZLDM1Tdf3nzP-9" value="&lt;font style=&quot;font-size: 14px;&quot;&gt;cache[l&lt;sub&gt;1&lt;/sub&gt;&lt;span style=&quot;font-size: 12px;&quot;&gt;][l&lt;/span&gt;&lt;sub&gt;2&lt;/sub&gt;&lt;span style=&quot;font-size: 12px;&quot;&gt;]&lt;/span&gt;&amp;nbsp;= max(l&lt;sub&gt;1&lt;/sub&gt;, l&lt;sub&gt;2&lt;/sub&gt;)&lt;br&gt;&lt;/font&gt;" style="shape=process;whiteSpace=wrap;html=1;backgroundOutline=1;" vertex="1" parent="WIyWlLk6GJQsqaUBKTNV-1">
          <mxGeometry x="380" y="600" width="154" height="70" as="geometry" />
        </mxCell>
        <mxCell id="GbVme3i1ZLDM1Tdf3nzP-10" value="&amp;nbsp;Да" style="text;html=1;align=center;verticalAlign=middle;resizable=0;points=[];autosize=1;strokeColor=none;fillColor=none;" vertex="1" parent="WIyWlLk6GJQsqaUBKTNV-1">
          <mxGeometry x="414" y="520" width="40" height="30" as="geometry" />
        </mxCell>
        <mxCell id="GbVme3i1ZLDM1Tdf3nzP-11" value="&lt;font style=&quot;font-size: 14px;&quot;&gt;cache[l&lt;sub&gt;1&lt;/sub&gt;&lt;span style=&quot;font-size: 12px;&quot;&gt;][l&lt;/span&gt;&lt;sub&gt;2&lt;/sub&gt;&lt;span style=&quot;font-size: 12px;&quot;&gt;]&lt;/span&gt;&amp;nbsp;= min(&lt;br&gt;DL(S&lt;sub&gt;1&lt;/sub&gt;[1..l&lt;sub&gt;1&lt;/sub&gt;], S&lt;sub&gt;2&lt;/sub&gt;[1..l&lt;sub&gt;2&lt;/sub&gt;-1]) + 1,&lt;br&gt;DL(S&lt;sub&gt;1&lt;/sub&gt;[1..l&lt;sub&gt;1&lt;/sub&gt;-1], S&lt;sub&gt;2&lt;/sub&gt;[1..l&lt;sub&gt;2&lt;/sub&gt;]) + 1,&lt;br&gt;DL(S&lt;sub&gt;1&lt;/sub&gt;[1..l&lt;sub&gt;1&lt;/sub&gt;-1], S&lt;sub&gt;2&lt;/sub&gt;[1..l&lt;sub&gt;2&lt;/sub&gt;-1]) +&amp;nbsp;&lt;br&gt;(S&lt;sub&gt;1&lt;/sub&gt;[l&lt;sub&gt;1&lt;/sub&gt;-1] != S&lt;sub&gt;2&lt;/sub&gt;&amp;nbsp;[l&lt;sub&gt;2&lt;/sub&gt;-1]))&lt;br&gt;&lt;/font&gt;" style="shape=process;whiteSpace=wrap;html=1;backgroundOutline=1;" vertex="1" parent="WIyWlLk6GJQsqaUBKTNV-1">
          <mxGeometry x="38.5" y="630" width="220" height="115" as="geometry" />
        </mxCell>
        <mxCell id="GbVme3i1ZLDM1Tdf3nzP-12" value="" style="endArrow=none;html=1;rounded=0;entryX=0;entryY=0.5;entryDx=0;entryDy=0;entryPerimeter=0;edgeStyle=orthogonalEdgeStyle;exitX=0.5;exitY=0;exitDx=0;exitDy=0;" edge="1" parent="WIyWlLk6GJQsqaUBKTNV-1" source="GbVme3i1ZLDM1Tdf3nzP-11" target="GbVme3i1ZLDM1Tdf3nzP-5">
          <mxGeometry width="50" height="50" relative="1" as="geometry">
            <mxPoint x="100" y="680" as="sourcePoint" />
            <mxPoint x="400" y="620" as="targetPoint" />
          </mxGeometry>
        </mxCell>
        <mxCell id="GbVme3i1ZLDM1Tdf3nzP-14" value="&lt;font style=&quot;font-size: 14px;&quot;&gt;Конец&lt;/font&gt;" style="strokeWidth=2;html=1;shape=mxgraph.flowchart.terminator;whiteSpace=wrap;" vertex="1" parent="WIyWlLk6GJQsqaUBKTNV-1">
          <mxGeometry x="60.5" y="1060" width="176" height="80" as="geometry" />
        </mxCell>
        <mxCell id="GbVme3i1ZLDM1Tdf3nzP-15" value="&lt;font style=&quot;font-size: 14px;&quot;&gt;l&lt;sub&gt;1&lt;/sub&gt; &amp;gt; 1 and l&lt;sub&gt;2&lt;/sub&gt;&amp;nbsp;&amp;gt; 1 and &lt;br&gt;S&lt;sub&gt;1&lt;/sub&gt;[l&lt;sub&gt;1&lt;/sub&gt;-1] =S&lt;sub&gt;2&lt;/sub&gt;[l&lt;sub&gt;2&lt;/sub&gt;-2] and&lt;br&gt;S&lt;sub&gt;1&lt;/sub&gt;[l&lt;sub&gt;1&lt;/sub&gt;-2] =S&lt;sub&gt;2&lt;/sub&gt;[l&lt;sub&gt;2&lt;/sub&gt;-1]&amp;nbsp;&lt;/font&gt;" style="strokeWidth=2;html=1;shape=mxgraph.flowchart.decision;whiteSpace=wrap;" vertex="1" parent="WIyWlLk6GJQsqaUBKTNV-1">
          <mxGeometry x="40.5" y="760" width="216" height="130" as="geometry" />
        </mxCell>
        <mxCell id="GbVme3i1ZLDM1Tdf3nzP-16" value="" style="endArrow=none;html=1;rounded=0;exitX=1;exitY=0.5;exitDx=0;exitDy=0;exitPerimeter=0;edgeStyle=orthogonalEdgeStyle;entryX=0.5;entryY=0;entryDx=0;entryDy=0;" edge="1" parent="WIyWlLk6GJQsqaUBKTNV-1" source="GbVme3i1ZLDM1Tdf3nzP-15" target="GbVme3i1ZLDM1Tdf3nzP-19">
          <mxGeometry width="50" height="50" relative="1" as="geometry">
            <mxPoint x="42.5" y="1000" as="sourcePoint" />
            <mxPoint x="322.5" y="960" as="targetPoint" />
            <Array as="points">
              <mxPoint x="330" y="825" />
            </Array>
          </mxGeometry>
        </mxCell>
        <mxCell id="GbVme3i1ZLDM1Tdf3nzP-17" value="" style="endArrow=none;html=1;rounded=0;entryX=0;entryY=0.5;entryDx=0;entryDy=0;entryPerimeter=0;edgeStyle=orthogonalEdgeStyle;" edge="1" parent="WIyWlLk6GJQsqaUBKTNV-1" target="GbVme3i1ZLDM1Tdf3nzP-15">
          <mxGeometry width="50" height="50" relative="1" as="geometry">
            <mxPoint x="150" y="950" as="sourcePoint" />
            <mxPoint x="92.5" y="950" as="targetPoint" />
            <Array as="points">
              <mxPoint x="10" y="950" />
              <mxPoint x="10" y="825" />
            </Array>
          </mxGeometry>
        </mxCell>
        <mxCell id="GbVme3i1ZLDM1Tdf3nzP-18" value="Да" style="text;html=1;align=center;verticalAlign=middle;resizable=0;points=[];autosize=1;strokeColor=none;fillColor=none;" vertex="1" parent="WIyWlLk6GJQsqaUBKTNV-1">
          <mxGeometry x="280" y="800" width="40" height="30" as="geometry" />
        </mxCell>
        <mxCell id="GbVme3i1ZLDM1Tdf3nzP-19" value="&lt;font style=&quot;font-size: 14px;&quot;&gt;cache[l&lt;sub&gt;1&lt;/sub&gt;&lt;span style=&quot;font-size: 12px;&quot;&gt;][l&lt;/span&gt;&lt;sub&gt;2&lt;/sub&gt;&lt;span style=&quot;font-size: 12px;&quot;&gt;]&lt;/span&gt;&amp;nbsp;= min(&lt;br&gt;cache[l&lt;sub&gt;1&lt;/sub&gt;&lt;span style=&quot;font-size: 12px;&quot;&gt;][l&lt;/span&gt;&lt;sub&gt;2&lt;/sub&gt;&lt;span style=&quot;font-size: 12px;&quot;&gt;]&lt;/span&gt;,&lt;br&gt;DL(S&lt;sub&gt;1&lt;/sub&gt;[1..l&lt;sub&gt;1&lt;/sub&gt;-2], S&lt;sub&gt;2&lt;/sub&gt;[1..l&lt;sub&gt;2&lt;/sub&gt;-2])&amp;nbsp;+ 1)&lt;br&gt;&lt;/font&gt;" style="shape=process;whiteSpace=wrap;html=1;backgroundOutline=1;" vertex="1" parent="WIyWlLk6GJQsqaUBKTNV-1">
          <mxGeometry x="240.00000000000003" y="850" width="180" height="90" as="geometry" />
        </mxCell>
        <mxCell id="GbVme3i1ZLDM1Tdf3nzP-20" value="" style="endArrow=none;html=1;rounded=0;entryX=0.5;entryY=1;entryDx=0;entryDy=0;edgeStyle=orthogonalEdgeStyle;exitX=0.5;exitY=0;exitDx=0;exitDy=0;" edge="1" parent="WIyWlLk6GJQsqaUBKTNV-1" target="GbVme3i1ZLDM1Tdf3nzP-19" source="GbVme3i1ZLDM1Tdf3nzP-23">
          <mxGeometry width="50" height="50" relative="1" as="geometry">
            <mxPoint x="100" y="950" as="sourcePoint" />
            <mxPoint x="92.5" y="950" as="targetPoint" />
            <Array as="points">
              <mxPoint x="149" y="950" />
              <mxPoint x="330" y="950" />
            </Array>
          </mxGeometry>
        </mxCell>
        <mxCell id="GbVme3i1ZLDM1Tdf3nzP-21" value="" style="endArrow=none;html=1;rounded=0;entryX=0.5;entryY=1;entryDx=0;entryDy=0;exitX=0.5;exitY=0;exitDx=0;exitDy=0;exitPerimeter=0;" edge="1" parent="WIyWlLk6GJQsqaUBKTNV-1" source="GbVme3i1ZLDM1Tdf3nzP-15" target="GbVme3i1ZLDM1Tdf3nzP-11">
          <mxGeometry width="50" height="50" relative="1" as="geometry">
            <mxPoint x="70" y="830" as="sourcePoint" />
            <mxPoint x="150.00000000000003" y="810" as="targetPoint" />
          </mxGeometry>
        </mxCell>
        <mxCell id="GbVme3i1ZLDM1Tdf3nzP-22" value="" style="endArrow=none;html=1;rounded=0;exitX=0.5;exitY=1;exitDx=0;exitDy=0;edgeStyle=orthogonalEdgeStyle;" edge="1" parent="WIyWlLk6GJQsqaUBKTNV-1" source="GbVme3i1ZLDM1Tdf3nzP-9">
          <mxGeometry width="50" height="50" relative="1" as="geometry">
            <mxPoint x="459.9999999999998" y="845" as="sourcePoint" />
            <mxPoint x="330" y="950" as="targetPoint" />
            <Array as="points">
              <mxPoint x="460" y="670" />
              <mxPoint x="460" y="950" />
              <mxPoint x="330" y="950" />
            </Array>
          </mxGeometry>
        </mxCell>
        <mxCell id="GbVme3i1ZLDM1Tdf3nzP-23" value="&lt;span style=&quot;font-size: 14px;&quot;&gt;Вернуть&amp;nbsp;&lt;/span&gt;cache[l&lt;sub&gt;1&lt;/sub&gt;][l&lt;sub&gt;2&lt;/sub&gt;]" style="rounded=0;whiteSpace=wrap;html=1;" vertex="1" parent="WIyWlLk6GJQsqaUBKTNV-1">
          <mxGeometry x="68.5" y="970" width="160" height="70" as="geometry" />
        </mxCell>
        <mxCell id="GbVme3i1ZLDM1Tdf3nzP-24" value="" style="endArrow=none;html=1;rounded=0;entryX=0.5;entryY=1;entryDx=0;entryDy=0;exitX=0.5;exitY=0;exitDx=0;exitDy=0;exitPerimeter=0;" edge="1" parent="WIyWlLk6GJQsqaUBKTNV-1" source="GbVme3i1ZLDM1Tdf3nzP-14" target="GbVme3i1ZLDM1Tdf3nzP-23">
          <mxGeometry width="50" height="50" relative="1" as="geometry">
            <mxPoint x="100" y="1180" as="sourcePoint" />
            <mxPoint x="150.00000000000003" y="1130" as="targetPoint" />
          </mxGeometry>
        </mxCell>
        <mxCell id="GbVme3i1ZLDM1Tdf3nzP-25" value="&lt;span style=&quot;font-size: 14px;&quot;&gt;cache = int(-1)[&lt;/span&gt;l&lt;sub&gt;1&lt;/sub&gt;+1][l&lt;sub&gt;2&lt;/sub&gt;+1]" style="rounded=0;whiteSpace=wrap;html=1;" vertex="1" parent="WIyWlLk6GJQsqaUBKTNV-1">
          <mxGeometry x="328" y="210" width="160" height="70" as="geometry" />
        </mxCell>
        <mxCell id="GbVme3i1ZLDM1Tdf3nzP-27" value="" style="endArrow=none;html=1;rounded=0;entryX=0.5;entryY=1;entryDx=0;entryDy=0;exitX=0.5;exitY=0;exitDx=0;exitDy=0;" edge="1" parent="WIyWlLk6GJQsqaUBKTNV-1" source="GbVme3i1ZLDM1Tdf3nzP-25" target="GbVme3i1ZLDM1Tdf3nzP-3">
          <mxGeometry width="50" height="50" relative="1" as="geometry">
            <mxPoint x="420" y="280" as="sourcePoint" />
            <mxPoint x="470" y="230" as="targetPoint" />
          </mxGeometry>
        </mxCell>
        <mxCell id="GbVme3i1ZLDM1Tdf3nzP-30" value="cache[l&lt;sub&gt;1&lt;/sub&gt;][l&lt;sub&gt;2&lt;/sub&gt;] != -1" style="strokeWidth=2;html=1;shape=mxgraph.flowchart.decision;whiteSpace=wrap;" vertex="1" parent="WIyWlLk6GJQsqaUBKTNV-1">
          <mxGeometry x="320" y="300" width="176" height="100" as="geometry" />
        </mxCell>
        <mxCell id="GbVme3i1ZLDM1Tdf3nzP-31" value="" style="endArrow=none;html=1;rounded=0;exitX=0.5;exitY=1;exitDx=0;exitDy=0;entryX=0.5;entryY=0;entryDx=0;entryDy=0;entryPerimeter=0;" edge="1" parent="WIyWlLk6GJQsqaUBKTNV-1" source="GbVme3i1ZLDM1Tdf3nzP-25" target="GbVme3i1ZLDM1Tdf3nzP-30">
          <mxGeometry width="50" height="50" relative="1" as="geometry">
            <mxPoint x="460" y="290" as="sourcePoint" />
            <mxPoint x="510" y="240" as="targetPoint" />
          </mxGeometry>
        </mxCell>
        <mxCell id="GbVme3i1ZLDM1Tdf3nzP-32" value="" style="endArrow=none;html=1;rounded=0;entryX=1;entryY=0.5;entryDx=0;entryDy=0;entryPerimeter=0;edgeStyle=orthogonalEdgeStyle;" edge="1" parent="WIyWlLk6GJQsqaUBKTNV-1" target="GbVme3i1ZLDM1Tdf3nzP-30">
          <mxGeometry width="50" height="50" relative="1" as="geometry">
            <mxPoint x="420" y="950" as="sourcePoint" />
            <mxPoint x="500" y="350" as="targetPoint" />
            <Array as="points">
              <mxPoint x="460" y="950" />
              <mxPoint x="549" y="950" />
              <mxPoint x="549" y="350" />
            </Array>
          </mxGeometry>
        </mxCell>
        <mxCell id="GbVme3i1ZLDM1Tdf3nzP-33" value="Да" style="text;html=1;align=center;verticalAlign=middle;resizable=0;points=[];autosize=1;strokeColor=none;fillColor=none;" vertex="1" parent="WIyWlLk6GJQsqaUBKTNV-1">
          <mxGeometry x="500" y="320" width="40" height="30" as="geometry" />
        </mxCell>
        <mxCell id="GbVme3i1ZLDM1Tdf3nzP-35" value="" style="endArrow=none;html=1;rounded=0;entryX=0;entryY=0.5;entryDx=0;entryDy=0;entryPerimeter=0;edgeStyle=orthogonalEdgeStyle;exitX=0.5;exitY=0;exitDx=0;exitDy=0;" edge="1" parent="WIyWlLk6GJQsqaUBKTNV-1" source="GbVme3i1ZLDM1Tdf3nzP-6" target="GbVme3i1ZLDM1Tdf3nzP-30">
          <mxGeometry width="50" height="50" relative="1" as="geometry">
            <mxPoint x="250" y="380" as="sourcePoint" />
            <mxPoint x="250" y="450" as="targetPoint" />
          </mxGeometry>
        </mxCell>
      </root>
    </mxGraphModel>
  </diagram>
</mxfile>
